<mxfile host="Electron" modified="2023-04-27T14:01:59.742Z" agent="Mozilla/5.0 (Macintosh; Intel Mac OS X 10_15_7) AppleWebKit/537.36 (KHTML, like Gecko) draw.io/21.2.1 Chrome/112.0.5615.87 Electron/24.1.2 Safari/537.36" etag="y4YqX8Bv-aIQhPC5kzbk" version="21.2.1" type="device">
  <diagram name="Page-1" id="LEeZ95nxpSWw1AGHZ1Hd">
    <mxGraphModel dx="333" dy="369" grid="1" gridSize="10" guides="1" tooltips="1" connect="1" arrows="1" fold="1" page="1" pageScale="1" pageWidth="850" pageHeight="1100" math="0" shadow="0">
      <root>
        <mxCell id="0" />
        <mxCell id="1" parent="0" />
        <mxCell id="yHvDCYGFjGAFw5tdtCBj-9" value="" style="edgeStyle=orthogonalEdgeStyle;rounded=0;orthogonalLoop=1;jettySize=auto;html=1;entryX=0.5;entryY=0;entryDx=0;entryDy=0;jumpSize=6;targetPerimeterSpacing=0;endArrow=blockThin;endFill=1;" parent="1" source="jRqtNyKgf6l_IyG3Fnu4-1" target="CsunBCRFdsrug3nYcb-u-2" edge="1">
          <mxGeometry relative="1" as="geometry">
            <mxPoint x="200" y="230" as="targetPoint" />
          </mxGeometry>
        </mxCell>
        <mxCell id="CsunBCRFdsrug3nYcb-u-8" value="&lt;font style=&quot;font-size: 8px;&quot;&gt;scheduler_port_sleep()&lt;/font&gt;" style="edgeLabel;html=1;align=center;verticalAlign=middle;resizable=0;points=[];fontSize=8;" parent="yHvDCYGFjGAFw5tdtCBj-9" vertex="1" connectable="0">
          <mxGeometry x="0.5326" relative="1" as="geometry">
            <mxPoint as="offset" />
          </mxGeometry>
        </mxCell>
        <mxCell id="jRqtNyKgf6l_IyG3Fnu4-1" value="&lt;font style=&quot;font-size: 10px;&quot;&gt;main()&lt;/font&gt;" style="rounded=1;whiteSpace=wrap;html=1;" parent="1" vertex="1">
          <mxGeometry x="160" y="160" width="80" height="20" as="geometry" />
        </mxCell>
        <mxCell id="jRqtNyKgf6l_IyG3Fnu4-7" style="edgeStyle=orthogonalEdgeStyle;rounded=0;orthogonalLoop=1;jettySize=auto;html=1;entryX=0;entryY=0.5;entryDx=0;entryDy=0;exitX=0.5;exitY=1;exitDx=0;exitDy=0;endArrow=blockThin;endFill=1;" parent="1" source="CsunBCRFdsrug3nYcb-u-2" target="jRqtNyKgf6l_IyG3Fnu4-8" edge="1">
          <mxGeometry relative="1" as="geometry">
            <mxPoint x="100" y="140" as="targetPoint" />
            <Array as="points">
              <mxPoint x="200" y="330" />
              <mxPoint x="130" y="330" />
              <mxPoint x="130" y="210" />
            </Array>
            <mxPoint x="200" y="380" as="sourcePoint" />
          </mxGeometry>
        </mxCell>
        <mxCell id="jRqtNyKgf6l_IyG3Fnu4-8" value="&lt;font style=&quot;font-size: 10px;&quot;&gt;Scheduler Loop&lt;/font&gt;" style="rounded=0;whiteSpace=wrap;html=1;" parent="1" vertex="1">
          <mxGeometry x="160" y="200" width="80" height="20" as="geometry" />
        </mxCell>
        <mxCell id="V1fbTBzL040UEDJPXokG-9" value="" style="endArrow=blockThin;html=1;rounded=0;entryX=0.5;entryY=0;entryDx=0;entryDy=0;endFill=1;" parent="1" target="jRqtNyKgf6l_IyG3Fnu4-8" edge="1">
          <mxGeometry width="50" height="50" relative="1" as="geometry">
            <mxPoint x="200" y="180" as="sourcePoint" />
            <mxPoint x="270" y="170" as="targetPoint" />
          </mxGeometry>
        </mxCell>
        <mxCell id="CsunBCRFdsrug3nYcb-u-2" value="&lt;font style=&quot;font-size: 10px;&quot;&gt;Sleep for Duration&lt;/font&gt;" style="rounded=0;whiteSpace=wrap;html=1;" parent="1" vertex="1">
          <mxGeometry x="160" y="260" width="80" height="60" as="geometry" />
        </mxCell>
        <mxCell id="Kq-RNaes0EIUHEtlj1Y9-1" value="&lt;font style=&quot;font-size: 10px;&quot;&gt;ISR&lt;/font&gt;" style="rounded=0;whiteSpace=wrap;html=1;" parent="1" vertex="1">
          <mxGeometry x="290" y="270" width="40" height="21.36" as="geometry" />
        </mxCell>
        <mxCell id="Kq-RNaes0EIUHEtlj1Y9-2" value="" style="endArrow=blockThin;html=1;rounded=0;jumpStyle=none;dashed=1;endFill=1;exitX=1;exitY=0.34;exitDx=0;exitDy=0;exitPerimeter=0;" parent="1" source="CsunBCRFdsrug3nYcb-u-2" edge="1">
          <mxGeometry width="50" height="50" relative="1" as="geometry">
            <mxPoint x="240" y="269.23" as="sourcePoint" />
            <mxPoint x="290" y="280" as="targetPoint" />
            <Array as="points">
              <mxPoint x="260" y="280" />
              <mxPoint x="270" y="280" />
            </Array>
          </mxGeometry>
        </mxCell>
        <mxCell id="Kq-RNaes0EIUHEtlj1Y9-4" style="edgeStyle=orthogonalEdgeStyle;rounded=0;jumpSize=6;orthogonalLoop=1;jettySize=auto;html=1;exitX=0.5;exitY=1;exitDx=0;exitDy=0;fontSize=8;targetPerimeterSpacing=0;" parent="1" source="Kq-RNaes0EIUHEtlj1Y9-1" target="Kq-RNaes0EIUHEtlj1Y9-1" edge="1">
          <mxGeometry relative="1" as="geometry" />
        </mxCell>
        <mxCell id="Kq-RNaes0EIUHEtlj1Y9-5" value="" style="endArrow=none;dashed=1;html=1;rounded=0;fontSize=8;targetPerimeterSpacing=0;jumpSize=6;entryX=0.5;entryY=0;entryDx=0;entryDy=0;startArrow=blockThin;startFill=1;exitX=1;exitY=0.5;exitDx=0;exitDy=0;" parent="1" source="jRqtNyKgf6l_IyG3Fnu4-8" target="Kq-RNaes0EIUHEtlj1Y9-1" edge="1">
          <mxGeometry width="50" height="50" relative="1" as="geometry">
            <mxPoint x="200" y="300" as="sourcePoint" />
            <mxPoint x="300" y="290" as="targetPoint" />
            <Array as="points">
              <mxPoint x="310" y="210" />
            </Array>
          </mxGeometry>
        </mxCell>
        <mxCell id="Kq-RNaes0EIUHEtlj1Y9-13" value="&lt;font color=&quot;#000000&quot;&gt;Correct&lt;/font&gt;" style="edgeLabel;html=1;align=center;verticalAlign=middle;resizable=0;points=[];fontSize=10;fontColor=#FF0000;" parent="Kq-RNaes0EIUHEtlj1Y9-5" vertex="1" connectable="0">
          <mxGeometry x="-0.2743" y="-1" relative="1" as="geometry">
            <mxPoint x="-7" y="-11" as="offset" />
          </mxGeometry>
        </mxCell>
        <mxCell id="Kq-RNaes0EIUHEtlj1Y9-9" value="" style="endArrow=none;dashed=1;html=1;rounded=0;fontSize=8;targetPerimeterSpacing=0;jumpSize=6;startArrow=blockThin;startFill=1;strokeColor=#FF0000;" parent="1" edge="1">
          <mxGeometry width="50" height="50" relative="1" as="geometry">
            <mxPoint x="240" y="308" as="sourcePoint" />
            <mxPoint x="310" y="291.36" as="targetPoint" />
            <Array as="points">
              <mxPoint x="280" y="308" />
              <mxPoint x="310" y="308" />
            </Array>
          </mxGeometry>
        </mxCell>
        <mxCell id="Kq-RNaes0EIUHEtlj1Y9-11" value="&lt;font color=&quot;#ff0000&quot;&gt;Incorrect&lt;br&gt;(Return to Sleep)&lt;br&gt;&lt;/font&gt;" style="edgeLabel;html=1;align=center;verticalAlign=middle;resizable=0;points=[];fontSize=10;" parent="Kq-RNaes0EIUHEtlj1Y9-9" vertex="1" connectable="0">
          <mxGeometry x="0.0064" y="-1" relative="1" as="geometry">
            <mxPoint x="6" y="11" as="offset" />
          </mxGeometry>
        </mxCell>
      </root>
    </mxGraphModel>
  </diagram>
</mxfile>
